# xmcd
#
# Track frame offsets: 
#        150
#        22210
#        41458
#        55773
#        63860
#        77995
#        89550
#        103365
#        117678
#        127550
#        144365
#
# Disc length: 2227 seconds
#
# Revision: 3
# Processed by: cddbd v1.5.2PL0 Copyright (c) Steve Scherf et al.
# Submitted via: ExactAudioCopyFreeDBPlugin 1.0
#
DISCID=9708b10b
DTITLE=First Call - An Evening in December
DYEAR=1985
DGENRE=Christmas
TTITLE0=An Evening in December
TTITLE1=Medley: Joy to the World, O Come, All Ye Faithful, Hark! The H
TTITLE1=erald Angels Sing, O Little Town of Bethlehem
TTITLE2=Starlight
TTITLE3=How Great Our Joy!
TTITLE4=O Come, O Come Emmanuel
TTITLE5=The First Noel
TTITLE6=One Small Child
TTITLE7=When Jesus Was a Tiny Baby
TTITLE8=Lo! How a Rose E're Blooming
TTITLE9=Have Yourself a Merry Little Christmas
TTITLE10=The New Twelve Days of Christmas-We Wish You a Merry Christma
TTITLE10=s
EXTD=
EXTT0=
EXTT1=
EXTT2=
EXTT3=
EXTT4=
EXTT5=
EXTT6=
EXTT7=
EXTT8=
EXTT9=
EXTT10=
PLAYORDER=
